HIERARCHY
ROOT Pelvis
{
	OFFSET 0.000000 0.000000 0.000000
	CHANNELS 6 Xposition Yposition Zposition Xrotation Yrotation Zrotation
	JOINT LeftUpLeg_virtual
	{
		OFFSET 0.000000 0.000000 0.000000
		CHANNELS 3 Xrotation Yrotation Zrotation
		JOINT LeftUpLeg
		{
			OFFSET 18.735201 -5.666702 -4.541200
			CHANNELS 3 Xrotation Yrotation Zrotation
			JOINT LeftLeg
			{
				OFFSET -0.021200 -31.938179 0.493100
				CHANNELS 3 Xrotation Yrotation Zrotation
				JOINT LeftFoot
				{
					OFFSET 0.021200 -31.938179 -4.336299
					CHANNELS 3 Xrotation Yrotation Zrotation
					JOINT LeftToeBase
					{
						OFFSET 0.943001 -26.722000 15.023500
						CHANNELS 3 Xrotation Yrotation Zrotation
						End Site
						{
							OFFSET 0 0 0
						}
					}
				}
			}
		}
	}
	JOINT RightUpLeg_virtual
	{
		OFFSET 0.000000 0.000000 0.000000
		CHANNELS 3 Xrotation Yrotation Zrotation
		JOINT RightUpLeg
		{
			OFFSET -18.735201 -5.666702 -4.541200
			CHANNELS 3 Xrotation Yrotation Zrotation
			JOINT RightLeg
			{
				OFFSET 0.018946 -31.938133 0.493100
				CHANNELS 3 Xrotation Yrotation Zrotation
				JOINT RightFoot
				{
					OFFSET -0.018946 -31.938126 -4.336299
					CHANNELS 3 Xrotation Yrotation Zrotation
					JOINT RightToeBase
					{
						OFFSET -0.943001 -26.722004 15.023500
						CHANNELS 3 Xrotation Yrotation Zrotation
						End Site
						{
							OFFSET 0 0 0
						}
					}
				}
			}
		}
	}
	JOINT Hips_virtual
	{
		OFFSET 0.000000 0.000000 0.000000
		CHANNELS 3 Xrotation Yrotation Zrotation
		JOINT Hips
		{
			OFFSET -0.000000 -0.000000 -0.000000
			CHANNELS 3 Xrotation Yrotation Zrotation
			JOINT Spine
			{
				OFFSET 0.000000 10.199997 -0.299500
				CHANNELS 3 Xrotation Yrotation Zrotation
				JOINT Spine1
				{
					OFFSET 0.000000 11.900002 -1.516600
					CHANNELS 3 Xrotation Yrotation Zrotation
					JOINT Spine2
					{
						OFFSET 0.000000 13.600006 -2.842500
						CHANNELS 3 Xrotation Yrotation Zrotation
						JOINT Neck_virtual
						{
							OFFSET 0.000000 0.000000 0.000000
							CHANNELS 3 Xrotation Yrotation Zrotation
							JOINT Neck
							{
								OFFSET 0.000000 9.624100 -2.890100
								CHANNELS 3 Xrotation Yrotation Zrotation
								JOINT Head
								{
									OFFSET 0.000000 14.068802 -1.351900
									CHANNELS 3 Xrotation Yrotation Zrotation
									End Site
									{
										OFFSET 0 0 0
									}
								}
							}
						}
						JOINT LeftShoulder_virtual
						{
							OFFSET 0.000000 0.000000 0.000000
							CHANNELS 3 Xrotation Yrotation Zrotation
							JOINT LeftShoulder
							{
								OFFSET 15.263000 10.923401 -0.547700
								CHANNELS 3 Xrotation Yrotation Zrotation
								JOINT LeftArm
								{
									OFFSET 25.438599 -2.830597 -13.032500
									CHANNELS 3 Xrotation Yrotation Zrotation
									JOINT LeftForeArm
									{
										OFFSET 29.960503 0.000000 0.000000
										CHANNELS 3 Xrotation Yrotation Zrotation
										JOINT LeftHand
										{
											OFFSET 27.849251 0.000000 0.000000
											CHANNELS 3 Xrotation Yrotation Zrotation
											End Site
											{
												OFFSET 0 0 0
											}
										}
									}
								}
							}
						}
						JOINT RightShoulder_virtual
						{
							OFFSET 0.000000 0.000000 0.000000
							CHANNELS 3 Xrotation Yrotation Zrotation
							JOINT RightShoulder
							{
								OFFSET -15.263000 10.923401 -0.547700
								CHANNELS 3 Xrotation Yrotation Zrotation
								JOINT RightArm
								{
									OFFSET -25.438599 -2.830597 -13.032500
									CHANNELS 3 Xrotation Yrotation Zrotation
									JOINT RightForeArm
									{
										OFFSET -29.960503 0.000000 0.000000
										CHANNELS 3 Xrotation Yrotation Zrotation
										JOINT RightHand
										{
											OFFSET -27.849251 0.000000 0.000000
											CHANNELS 3 Xrotation Yrotation Zrotation
											End Site
											{
												OFFSET 0 0 0
											}
										}
									}
								}
							}
						}
					}
				}
			}
		}
	}
}
MOTION
Frames: 8
Frame Time: 0.03333333
-7.539438 93.698509 2.189465 0.000000 0.000000 0.000000 0.744235 -79.667511 -2.719523 -27.650428 13.887104 21.206487 31.018416 -1.909751 -2.742858 11.003988 5.356126 -15.245296 0.000000 0.000000 0.000000 -4.376013 -73.563781 -2.399894 -25.285789 -20.951802 -9.536214 33.703644 6.750018 -14.921346 -3.425620 -1.123760 13.943603 0.000000 0.000000 0.000000 -10.475502 -72.798274 -9.293036 -1.623745 -1.446114 1.244713 4.633772 -0.979325 -1.402789 6.909004 -1.246083 2.467122 0.000000 0.000000 0.000000 5.364306 -0.284524 -2.071393 -0.146459 3.170157 -0.425453 0.000000 0.000000 0.000000 6.255017 -0.295746 -0.937494 -4.738657 7.320754 0.379788 11.182221 -78.116846 -48.455469 -0.791224 -32.227022 -2.184588 0.000000 0.000000 0.000000 1.807871 2.543851 0.237912 6.263572 2.208311 11.681334 10.985387 37.192781 48.030508 0.524075 65.137137 -0.495316 0.000000 0.000000 0.000000 
-7.556496 93.684677 2.156591 0.000000 0.000000 0.000000 0.865070 -79.634924 -2.582753 -27.754412 13.814204 21.188937 31.167437 -1.939890 -2.686665 10.911555 5.363056 -15.138698 0.000000 0.000000 0.000000 -4.148032 -73.569163 -2.204603 -25.187590 -20.907665 -9.542534 33.571360 6.660230 -14.896518 -3.414091 -1.124195 13.908748 0.000000 0.000000 0.000000 -10.541827 -72.717691 -9.344678 -1.623174 -1.457458 1.255038 4.543493 -1.034382 -1.355242 6.908694 -1.261011 2.525180 0.000000 0.000000 0.000000 5.362816 -0.281442 -2.059565 -0.201126 3.179146 -0.437278 0.000000 0.000000 0.000000 6.217026 -0.313125 -0.879069 -4.649599 7.209590 0.421493 12.106093 -78.143429 -47.570779 -0.854698 -32.379338 -2.264426 0.000000 0.000000 0.000000 1.812457 2.625816 0.277157 6.187231 2.238494 11.610802 11.095373 37.174602 48.072514 0.524075 65.137137 -0.495316 0.000000 0.000000 0.000000 
-7.557481 93.673576 2.134636 0.000000 0.000000 0.000000 1.063144 -79.563077 -2.424469 -27.863938 13.578406 21.071605 31.334087 -1.863198 -2.561542 10.723487 5.331227 -15.042874 0.000000 0.000000 0.000000 -3.816678 -73.423905 -1.887054 -25.090599 -20.821120 -9.566388 33.367571 6.522555 -14.898997 -3.410489 -1.124693 13.815165 0.000000 0.000000 0.000000 -10.647654 -72.627485 -9.465747 -1.669323 -1.474165 1.277532 4.605182 -1.124023 -1.280464 6.888104 -1.268625 2.560501 0.000000 0.000000 0.000000 5.370363 -0.283263 -2.049746 -0.288231 3.198514 -0.501526 0.000000 0.000000 0.000000 6.106314 -0.344829 -0.814805 -4.473838 7.014133 0.265419 14.163141 -78.120575 -45.556108 -0.934430 -32.596463 -2.347732 0.000000 0.000000 0.000000 1.867590 2.772140 0.350564 5.969149 2.311014 11.472225 11.384145 37.087094 48.041778 0.524075 65.137137 -0.495316 0.000000 0.000000 0.000000 
-7.535071 93.663002 2.093145 0.000000 0.000000 0.000000 1.403266 -79.529801 -2.154023 -27.975953 13.336918 20.914333 31.441591 -1.691424 -2.363904 10.483841 5.289008 -14.983412 0.000000 0.000000 0.000000 -3.543274 -73.213330 -1.581760 -25.042433 -20.760944 -9.588739 33.201406 6.332573 -14.945144 -3.411717 -1.109801 13.716463 0.000000 0.000000 0.000000 -10.796261 -72.586155 -9.634334 -1.742154 -1.522901 1.305509 4.819234 -1.249788 -1.176474 6.875142 -1.264407 2.569403 0.000000 0.000000 0.000000 5.410098 -0.277395 -2.026781 -0.371747 3.213421 -0.611574 0.000000 0.000000 0.000000 5.943971 -0.373153 -0.757505 -4.260251 6.830640 0.006473 16.539370 -78.190892 -43.157793 -0.984223 -32.767006 -2.398688 0.000000 0.000000 0.000000 1.972396 2.971588 0.451830 5.659116 2.392303 11.302875 11.853351 36.844585 48.014823 0.524075 65.137137 -0.495316 0.000000 0.000000 0.000000 
-7.492750 93.678482 2.057199 0.000000 0.000000 0.000000 1.833192 -79.587447 -1.798285 -28.033051 13.305345 20.753351 31.439777 -1.450710 -2.090672 10.306169 5.293182 -14.982717 0.000000 0.000000 0.000000 -3.335498 -73.039775 -1.336209 -25.132617 -20.733005 -9.605182 33.163478 6.128667 -15.056133 -3.399532 -1.077850 13.665790 0.000000 0.000000 0.000000 -10.978950 -72.601653 -9.815397 -1.838296 -1.579379 1.335355 5.132686 -1.369905 -1.074617 6.891403 -1.227005 2.533589 0.000000 0.000000 0.000000 5.490674 -0.234638 -2.002058 -0.430809 3.205359 -0.761152 0.000000 0.000000 0.000000 5.766281 -0.371521 -0.731193 -4.080898 6.726896 -0.191867 18.463548 -78.504241 -41.015351 -0.952218 -32.885476 -2.395669 0.000000 0.000000 0.000000 2.119413 3.221354 0.579287 5.304881 2.453337 11.178698 12.323441 36.398420 48.136380 0.524075 65.137137 -0.495316 0.000000 0.000000 0.000000 
-7.419131 93.717400 2.040865 0.000000 0.000000 0.000000 2.024132 -79.738832 -1.658722 -28.017632 13.584299 20.634818 31.262425 -1.176084 -1.762249 10.245063 5.330497 -15.149138 0.000000 0.000000 0.000000 -3.185101 -73.046346 -1.130937 -25.426211 -20.604195 -9.557127 33.315754 5.952530 -15.240024 -3.354345 -1.048904 13.676154 0.000000 0.000000 0.000000 -11.242474 -72.721748 -9.997300 -1.953613 -1.655543 1.350882 5.450708 -1.400570 -1.020684 6.955683 -1.131955 2.430457 0.000000 0.000000 0.000000 5.598162 -0.125060 -2.002715 -0.470987 3.154905 -0.929093 0.000000 0.000000 0.000000 5.677208 -0.326227 -0.760764 -3.966309 6.741903 -0.167429 19.677987 -78.978502 -39.326754 -0.836982 -33.050411 -2.340061 0.000000 0.000000 0.000000 2.291977 3.515036 0.722344 4.965198 2.471566 11.124074 12.576539 35.789454 48.469495 0.524075 65.137137 -0.495316 0.000000 0.000000 0.000000 
-7.302869 93.776543 2.015543 0.000000 0.000000 0.000000 2.174760 -80.040111 -1.539778 -28.038722 14.128273 20.590314 30.957026 -0.928258 -1.412678 10.460509 5.396331 -15.495187 0.000000 0.000000 0.000000 -3.009423 -73.396824 -0.861567 -25.958202 -20.257870 -9.426612 33.689205 5.856252 -15.513737 -3.289382 -1.057386 13.738032 0.000000 0.000000 0.000000 -11.649903 -72.985912 -10.236342 -2.064962 -1.750161 1.330446 5.692540 -1.329991 -1.019905 7.095202 -0.986761 2.239536 0.000000 0.000000 0.000000 5.732279 0.053719 -2.060161 -0.527850 3.066079 -1.100497 0.000000 0.000000 0.000000 5.757295 -0.255777 -0.838999 -3.933370 6.782848 0.143563 20.392718 -79.247461 -37.960241 -0.646036 -33.658342 -2.254351 0.000000 0.000000 0.000000 2.475590 3.837027 0.873336 4.694676 2.425151 11.079147 12.573986 35.186099 48.837171 0.524075 65.137137 -0.495316 0.000000 0.000000 0.000000 
-7.136861 93.819237 1.958445 0.000000 0.000000 0.000000 2.478535 -80.539842 -1.258986 -28.194447 14.755253 20.587951 30.681647 -0.679058 -1.075954 10.922518 5.498052 -15.941392 0.000000 0.000000 0.000000 -2.817739 -73.919271 -0.554339 -26.769198 -19.738289 -9.266004 34.401248 5.884737 -15.877495 -3.203423 -1.117940 13.826273 0.000000 0.000000 0.000000 -12.279411 -73.389870 -10.635556 -2.181333 -1.807052 1.289134 5.861947 -1.172133 -1.086974 7.327553 -0.808729 1.955502 0.000000 0.000000 0.000000 5.895190 0.279623 -2.194140 -0.647833 2.956935 -1.259099 0.000000 0.000000 0.000000 6.074972 -0.183412 -0.963799 -3.995604 6.765396 0.608605 20.216060 -78.651145 -37.474448 -0.403281 -35.288528 -2.161959 0.000000 0.000000 0.000000 2.628365 4.166511 1.026503 4.539063 2.244479 11.035192 12.220882 34.829105 49.156322 0.524075 65.137137 -0.495316 0.000000 0.000000 0.000000 
